<?xml version="1.0" standalone="no"?>
<!DOCTYPE svg PUBLIC "-//W3C//DTD SVG 1.1//EN" "http://www.w3.org/Graphics/SVG/1.1/DTD/svg11.dtd">
<svg xmlns="http://www.w3.org/2000/svg">
<metadata>Copyright (C) 2017 by original authors @ fontello.com</metadata>
<defs>
<font id="fontello" horiz-adv-x="1000" >
<font-face font-family="fontello" font-weight="400" font-stretch="normal" units-per-em="1000" ascent="850" descent="-150" />
<missing-glyph horiz-adv-x="1000" />
<glyph glyph-name="bell" unicode="&#xe800;" d="M667 183v157a315 315 0 0 1-236 305 117 117 0 0 1 40 87 118 118 0 0 1-236 0 117 117 0 0 1 40-87 315 315 0 0 1-236-305v-157l-39-196h196c0-80 83-137 157-137s157 57 157 137h196z m-392 549a78 78 0 0 0 156 0 83 83 0 0 0-78-78c-2 0 2 0 0 0a83 83 0 0 0-78 78z m78-843c-54 0-118 42-118 98h236c0-56-64-98-118-98z m-314 138l39 156v157c0 149 127 271 275 275 2 0-2 0 0 0 148-4 275-126 275-275v-157l39-156h-628z" horiz-adv-x="706" />

<glyph glyph-name="right-small" unicode="&#xe801;" d="M328 595q15 15 36 15t37-15l245-245-245-245q-15-15-36-15-22 0-37 15t-15 37 15 37l120 119-395 0q-22 0-37 15t-16 37 16 37 37 16l395 0-120 118q-15 15-15 37t15 37z" horiz-adv-x="646" />

<glyph glyph-name="right-small-1" unicode="&#xe802;" d="M328 595q15 15 36 15t37-15l245-245-245-245q-15-15-36-15-22 0-37 15t-15 37 15 37l120 119-395 0q-22 0-37 15t-16 37 16 37 37 16l395 0-120 118q-15 15-15 37t15 37z" horiz-adv-x="646" />

<glyph glyph-name="right-small-2" unicode="&#xe803;" d="M328 595q15 15 36 15t37-15l245-245-245-245q-15-15-36-15-22 0-37 15t-15 37 15 37l120 119-395 0q-22 0-37 15t-16 37 16 37 37 16l395 0-120 118q-15 15-15 37t15 37z" horiz-adv-x="646" />

<glyph glyph-name="bluetooth" unicode="&#xe804;" d="M773 571l-442 279v-442l-307 182-24-40 323-200-323-200 24-40 307 182v-442l442 279-362 221z m-395 186l302-186-302-186v372z m0-814v372l302-186z" horiz-adv-x="773" />

<glyph glyph-name="cart" unicode="&#xe805;" d="M544 111a130 130 0 1 1 130-131 131 131 0 0 1-130 131z m0-218a87 87 0 1 0 86 87 87 87 0 0 0-86-87z m369 218a130 130 0 1 1 131-131 131 131 0 0 1-131 131z m0-218a87 87 0 1 0 87 87 87 87 0 0 0-87-87z m65 327l174 456h-869l-87 174h-196v-43h174l239-587h565z m109 413l-130-370h-522l-152 370h804z" horiz-adv-x="1152" />

<glyph glyph-name="crop" unicode="&#xe806;" d="M800 628l200 200-44 22-200-200h-534v178h-44v-178h-178v-44h178v-578h578v-178h44v178h178v44h-178v556z m-578-22h489l-489-489v489z m534-534h-512l512 511v-511z" horiz-adv-x="1000" />

<glyph glyph-name="menu" unicode="&#xe807;" d="M1385 773h-1385v77h1385v-77z m0-461h-1385v77h1385v-77z m0-462h-1385v77h1385v-77z m0 923h-1385v77h1385v-77z m0-461h-1385v77h1385v-77z m0-462h-1385v77h1385v-77z" horiz-adv-x="1385" />

<glyph glyph-name="heart" unicode="&#xe808;" d="M909 850c-97 0-210-49-309-195-99 145-211 195-308 195a275 275 0 0 1-179-65 315 315 0 0 1-107-308c31-187 363-379 594-627 232 248 564 440 595 627a315 315 0 0 1-107 308 275 275 0 0 1-179 65h0z" horiz-adv-x="1200" />

<glyph glyph-name="star" unicode="&#xe809;" d="M526 850l123-383 403 1-326-236 125-382-325 237-325-237 125 382-326 236 402-1z" horiz-adv-x="1052" />

<glyph glyph-name="layers" unicode="&#xe80a;" d="M1223 666l-616 185-608-520 256-78-256-218 616-185 608 520-256 77z m-1037-296l443 379 407-122-443-379z m699 7l151-46-443-379-407 122 174 149 255-77z" horiz-adv-x="1223" />

<glyph glyph-name="iphone" unicode="&#xe80b;" d="M508 850h-413a92 92 0 0 1-94-93v-814a92 92 0 0 1 94-93h413a92 92 0 0 1 94 93v814a92 92 0 0 1-94 93z m19-907a17 17 0 0 0-19-18h-413a17 17 0 0 0-19 18v130h451v-130z m0 203h-451v482h451v-482z m0 556h-451v55a17 17 0 0 0 19 19h413a17 17 0 0 0 19-19v-55z m-226-741a37 37 0 1 1-37 37 37 37 0 0 1 37-37z" horiz-adv-x="602" />

<glyph glyph-name="down-open-big" unicode="&#xe80c;" d="M63 570l370-356 372 356q22 26 48 0 26-22 0-48l-396-392q-22-22-48 0l-396 392q-26 26 0 48 24 24 50 0z" horiz-adv-x="866" />

<glyph glyph-name="download" unicode="&#xe80d;" d="M708 36v442h-94v-442l-142 116-71-70 260-233 237 233-71 70z m359 490c-28 132-108 207-217 207a312 312 0 0 1-102-19 305 305 0 0 1-241 136 298 298 0 0 1-284-318c0-5 0-10 1-15-106-22-230-129-224-249s89-255 222-255l85-1v93l-85 1c-84 0-125 101-127 162-4 70 83 144 149 159l77 16-3 77v2c0 7 0 13-1 19a200 200 0 0 0 55 152 187 187 0 0 0 135 64c100 0 161-94 208-155l66 24c104 39 171-11 194-118l17-77h71a146 146 0 0 0 141-140c-2-91-88-185-171-185l-41-1v-93l41 1c141 0 262 145 266 278a237 237 0 0 1-232 235z" horiz-adv-x="1299" />

<glyph glyph-name="down-open-big-1" unicode="&#xe80e;" d="M63 570l370-356 372 356q22 26 48 0 26-22 0-48l-396-392q-22-22-48 0l-396 392q-26 26 0 48 24 24 50 0z" horiz-adv-x="866" />

<glyph glyph-name="anchor" unicode="&#xe80f;" d="M1164 121l-148 250-254-146 42-62 148 62a380 380 0 0 0-338-292v438h148v83h-148v105a155 155 0 0 1 106 146 148 148 0 0 1-297 0 155 155 0 0 1 106-146v-105h-148v-83h148v-438c-276 27-317 292-317 292l148-62 42 62-254 146-148-250 64-42 84 104c0-161 167-333 424-333s444 172 444 333l84-104z m-656 584a63 63 0 1 0 64-63 63 63 0 0 0-64 63z" horiz-adv-x="1164" />

<glyph glyph-name="down-open-big-2" unicode="&#xe810;" d="M63 570l370-356 372 356q22 26 48 0 26-22 0-48l-396-392q-22-22-48 0l-396 392q-26 26 0 48 24 24 50 0z" horiz-adv-x="866" />

<glyph glyph-name="profile-1" unicode="&#xe811;" d="M688 316c68 55 112 139 112 234 0 165-134 300-300 300-165 0-299-135-299-300 0-95 43-179 112-234-183-69-312-238-312-466l100 0c0 250 179 400 399 400 221 0 400-150 400-400l100 0c0 228-129 397-312 466z m-188 34c-110 0-200 89-200 200 0 110 90 200 200 200 111 0 200-90 200-200 0-111-89-200-200-200z" horiz-adv-x="1000" />

<glyph glyph-name="search" unicode="&#xe813;" d="M977-82l-250 250c57 71 91 174 91 273 0 228-185 409-409 409-224 0-409-181-409-409 0-228 185-409 409-409 95 0 181 35 250 91l250-273 68 68z m-568 205c-174 0-318 141-318 318 0 177 144 318 318 318 174 0 318-141 318-318 0-177-144-318-318-318z" horiz-adv-x="977" />

<glyph glyph-name="star-1" unicode="&#xe814;" d="M563 621l104-229 187 0-146-104 63-230-208 125-209-125 63 230-146 104 187 0 105 229m0 229l-146-375-417 0 333-229-137-396 367 229 375-229-146 396 333 229-417 0-145 375z" horiz-adv-x="1125" />

<glyph glyph-name="signal" unicode="&#xe815;" d="M0-150l133 0 0 467-133 0 0-467z m300 0l133 0 0 600-133 0 0-600z m300 0l133 0 0 733-133 0 0-733z m300 0l133 0 0 867-133 0 0-867z m300 1000l0-1000 133 0 0 1000-133 0z" horiz-adv-x="1333" />

<glyph glyph-name="settings-2" unicode="&#xe816;" d="M231 734l0 116-94 0 0-118c-79-22-137-94-137-180 0-86 58-159 137-181l0-521 94 0 0 520c83 19 145 93 145 182 0 88-62 162-145 182z m-43-276c-52 0-94 42-94 94 0 51 42 94 94 94 52 0 94-43 94-94 0-52-42-94-94-94z m443-119l0 511-94 0 0-509c-82-20-144-94-144-182 0-89 62-163 144-182l0-127 94 0 0 128c79 22 138 95 138 181 0 86-59 158-138 180z m-50-274c-52 0-94 42-94 94 0 52 42 94 94 94 52 0 94-42 94-94 0-52-42-94-94-94z m450 484l0 301-94 0 0-296c-85-17-150-93-150-184 0-90 65-166 150-183l0-337 94 0 0 342c76 23 131 94 131 178 0 84-55 155-131 179z m-56-272c-52 0-94 42-94 93 0 52 42 94 94 94 51 0 94-42 94-94 0-51-43-93-94-93z" horiz-adv-x="1162" />

<glyph glyph-name="profile" unicode="&#xe817;" d="M500 850c-276 0-500-224-500-500 0-276 224-500 500-500 276 0 500 224 500 500 0 276-224 500-500 500z m-226-849l34 168 1 2c5 42 41 73 83 73l25 0c25-13 53-19 83-19 30 0 58 6 84 19l28 0c42 0 78-31 83-73l35-168c-66-44-145-70-230-70-83 0-161 25-226 68z m226 307c-62 0-125 75-125 146 0 67 58 125 125 125 67 0 125-58 125-125 0-71-63-146-125-146z m302-244l-24 120c-10 63-54 115-113 134 25 37 43 91 43 136 0 113-95 209-208 209-113 0-208-96-208-209 0-45 18-99 44-137-57-20-101-71-110-133l-25-123c-73 75-118 177-118 289 0 230 187 417 417 417 230 0 417-187 417-417 0-111-44-211-115-286z" horiz-adv-x="1000" />

<glyph glyph-name="help" unicode="&#xe81a;" d="M0-150c0 150 0 300 0 450l0 0 0 100 0 0c0 83 0 167 0 250l300 0c0 74 0 127 0 200l400 0c0-73 0-126 0-200l299 0c0-175 0-640 0-800l-999 0z m600 900l-200 0 0-100 200 0 0 100z m-500-200l0-150 300 0 0-100-300 0 0-350 799 0 0 350-349 0 0 100 349 0 0 150-799 0z m600-350l-400 0 0 100 400 0 0-100z" horiz-adv-x="1000" />

<glyph glyph-name="nextt-svg-1" unicode="&#xe81b;" d="M3247 850l-124-125 283-286-3407 0 0-176 3407 0-283-287 124-125 370 375 123 125-493 499z" horiz-adv-x="3741" />

<glyph glyph-name="call" unicode="&#xe81c;" d="M982-17c-31-94-152-141-239-133-118 11-246 73-344 142-143 102-277 259-356 425-55 117-68 262 15 369 30 40 63 61 113 63 68 4 78-35 101-97 18-45 41-92 54-139 25-89-61-92-72-164-6-46 49-107 74-140 49-63 107-118 174-160 38-24 99-67 143-43 66 37 60 150 154 111 48-19 95-48 142-73 71-38 68-78 41-161-21-62 20 62 0 0z" horiz-adv-x="1000" />

<glyph glyph-name="email" unicode="&#xe81d;" d="M0 850c0-204 0-800 0-1000 477 0 835 0 1333 0 0 200 0 795 0 1000-581 0-750 0-1333 0z m134-867l0 537 533-469 533 469 0-537-1066 0z m1066 714l-533-468-533 469 0 18 1066 0 0-19z" horiz-adv-x="1333" />

<glyph glyph-name="twitter" unicode="&#xf099;" d="M904 622q-37-54-90-93 0-8 0-23 0-73-21-145t-64-139-103-117-144-82-181-30q-151 0-276 81 19-2 43-2 126 0 224 77-59 1-105 36t-64 89q19-3 34-3 24 0 48 6-63 13-104 62t-41 115v2q38-21 82-23-37 25-59 64t-22 86q0 49 25 91 68-83 164-133t208-55q-5 21-5 41 0 75 53 127t127 53q79 0 132-57 61 12 115 44-21-64-80-100 52 6 104 28z" horiz-adv-x="928.6" />

<glyph glyph-name="facebook" unicode="&#xf09a;" d="M535 843v-147h-87q-48 0-65-20t-17-60v-106h164l-22-165h-142v-424h-171v424h-142v165h142v122q0 104 58 161t155 57q82 0 127-7z" horiz-adv-x="571.4" />

<glyph glyph-name="gplus" unicode="&#xf0d5;" d="M802 341q0-117-49-207t-138-142-206-51q-83 0-159 32t-131 87-87 131-32 159 32 159 87 131 131 87 159 32q160 0 274-107l-111-107q-65 63-163 63-69 0-127-34t-92-94-34-130 34-130 92-94 127-34q46 0 85 13t64 32 44 43 27 47 12 41h-232v141h386q7-36 7-68z m484 68v-118h-117v-116h-117v116h-117v118h117v116h117v-116h117z" horiz-adv-x="1285.7" />

<glyph glyph-name="linkedin" unicode="&#xf0e1;" d="M195 501v-553h-184v553h184z m12 171q0-41-29-68t-75-27h-1q-46 0-74 27t-28 68q0 41 29 68t75 27 74-27 29-68z m650-407v-317h-183v296q0 59-23 92t-71 33q-35 0-58-19t-36-48q-6-17-6-45v-309h-184q1 223 1 361t0 165l-1 27h184v-80h-1q11 18 23 31t31 29 49 24 64 9q95 0 153-63t58-186z" horiz-adv-x="857.1" />

<glyph glyph-name="youtube" unicode="&#xf167;" d="M542 156v-118q0-37-22-37-13 0-25 12v168q12 12 25 12 22 0 22-37z m189-1v-25h-51v25q0 38 25 38t26-38z m-540 122h60v52h-174v-52h59v-318h55v318z m161-318h50v276h-50v-211q-17-23-32-23-10 0-11 11-1 2-1 20v203h-50v-218q0-28 5-41 7-21 32-21 27 0 57 34v-30z m240 83v110q0 41-5 55-10 31-40 31-28 0-52-30v121h-50v-370h50v27q25-31 52-31 30 0 40 31 5 15 5 56z m188 6v7h-51q0-29-1-34-4-20-22-20-26 0-26 38v49h100v57q0 44-15 65-22 28-59 28-38 0-60-28-15-21-15-65v-96q0-44 16-65 22-29 60-29 40 0 60 30 10 15 12 30 1 5 1 33z m-339 509v117q0 39-24 39t-24-39v-117q0-39 24-39t24 39z m401-419q0-131-14-195-8-33-33-56t-57-25q-102-12-309-12t-310 12q-32 3-57 25t-32 56q-15 62-15 195 0 131 15 195 7 33 32 56t57 26q103 11 310 11t309-11q33-4 58-26t32-56q14-62 14-195z m-557 712h57l-67-223v-151h-56v151q-8 42-34 119-21 57-37 104h60l39-147z m207-186v-97q0-46-16-66-21-29-59-29-37 0-59 29-15 21-15 66v97q0 45 15 66 22 28 59 28 38 0 59-28 16-21 16-66z m187 91v-279h-51v31q-30-35-58-35-25 0-33 21-4 13-4 42v220h51v-205q0-19 0-20 2-12 12-12 15 0 32 24v213h51z" horiz-adv-x="857.1" />
</font>
</defs>
</svg>
